<?xml version="1.0" standalone="no"?>
<!DOCTYPE svg PUBLIC "-//W3C//DTD SVG 20010904//EN"
 "http://www.w3.org/TR/2001/REC-SVG-20010904/DTD/svg10.dtd">
<svg version="1.0" xmlns="http://www.w3.org/2000/svg"
 width="1024.000000pt" height="1024.000000pt" viewBox="0 0 1024.000000 1024.000000"
 preserveAspectRatio="xMidYMid meet">

<g transform="translate(0.000000,1024.000000) scale(0.100000,-0.100000)"
fill="#000000" stroke="none">
<path d="M2550 9243 c-453 -36 -798 -178 -1073 -442 -202 -194 -331 -398 -417
-659 -52 -159 -78 -323 -91 -575 -15 -310 -7 -4977 10 -5107 31 -244 72 -387
171 -585 251 -508 725 -817 1340 -875 80 -8 900 -10 2730 -7 2843 4 2624 -1
2847 56 179 46 362 129 518 234 101 69 295 257 365 355 155 215 251 442 294
690 36 210 37 358 34 2897 -4 2274 -6 2500 -21 2606 -56 388 -213 707 -469
955 -244 237 -506 365 -893 436 l-120 23 -2590 1 c-1424 0 -2610 -1 -2635 -3z
m1762 -1333 c311 -63 561 -235 739 -509 35 -55 66 -100 69 -100 3 0 32 40 64
90 143 220 373 402 601 478 138 45 263 64 430 64 129 1 178 -3 251 -20 439
-102 752 -417 875 -878 27 -101 37 -354 20 -477 -22 -153 -63 -294 -117 -401
-150 -297 -597 -775 -1313 -1401 -362 -316 -659 -556 -726 -587 -48 -22 -113
-24 -158 -5 -83 34 -646 520 -1167 1006 -666 621 -880 895 -977 1248 -25 90
-27 112 -27 302 -1 215 3 243 51 395 118 366 372 633 720 758 65 24 178 49
273 61 75 9 292 -4 392 -24z m3411 -3284 c100 -42 118 -155 48 -294 -101 -200
-876 -1052 -1266 -1393 -289 -252 -570 -461 -719 -535 -99 -49 -239 -84 -336
-84 -110 0 -248 25 -935 167 -776 162 -814 167 -929 125 -112 -41 -165 -81
-339 -259 -93 -94 -179 -174 -192 -177 -13 -3 -34 -2 -47 3 -32 13 -831 815
-841 845 -4 12 -3 34 2 47 11 28 760 795 847 867 146 122 325 218 491 264 66
18 105 22 248 22 197 0 215 -3 590 -124 516 -166 466 -158 1100 -165 286 -3
534 -8 550 -11 121 -25 204 -133 192 -250 -13 -124 -114 -221 -284 -271 -51
-15 -140 -18 -733 -22 -520 -5 -680 -9 -697 -19 -49 -27 -57 -89 -18 -128 l25
-25 698 4 c781 4 751 1 911 78 115 56 203 144 262 263 38 77 52 95 121 152 96
79 278 248 588 544 255 245 286 271 373 320 113 63 223 85 290 56z"/>
<path d="M6090 7683 c-50 -26 -67 -61 -50 -102 18 -44 42 -51 169 -51 120 0
193 -15 290 -61 66 -30 173 -102 204 -137 17 -19 17 -20 -29 -31 -143 -36
-284 -167 -284 -265 0 -15 10 -37 25 -51 45 -46 94 -29 159 56 55 70 106 99
176 99 113 0 178 -77 214 -252 17 -80 21 -195 8 -214 -4 -6 -29 -14 -57 -18
-33 -4 -58 -14 -74 -31 -52 -51 -15 -135 61 -135 45 0 46 -6 17 -87 -58 -155
-161 -247 -319 -283 -96 -21 -130 -59 -109 -119 13 -36 56 -56 104 -48 19 3
35 3 35 0 0 -15 -88 -116 -177 -205 l-98 -98 0 73 c0 64 -4 80 -30 122 -41 67
-162 150 -218 150 -47 0 -77 -31 -77 -79 0 -41 13 -58 75 -99 92 -60 121 -137
90 -243 -24 -84 -73 -151 -189 -260 -190 -180 -250 -218 -346 -219 -98 0 -171
47 -221 144 -24 47 -36 137 -25 193 11 59 14 60 99 33 43 -14 96 -25 118 -25
77 0 116 78 67 135 -16 18 -45 31 -95 44 -88 23 -132 49 -166 98 -45 66 -60
120 -61 223 -1 116 17 175 81 261 l45 61 26 -25 c40 -39 135 -79 166 -71 35 8
66 50 66 86 0 31 -16 49 -109 126 -49 41 -84 98 -106 177 -23 78 -16 216 15
298 45 118 153 225 271 268 101 37 139 110 84 164 -40 41 -99 35 -214 -21
-178 -87 -306 -251 -347 -445 -22 -103 -14 -240 19 -343 l26 -79 -49 -54 c-56
-61 -112 -169 -135 -258 -31 -123 -12 -299 43 -400 l28 -50 -29 -85 c-27 -77
-29 -93 -25 -192 4 -102 7 -112 46 -192 93 -187 288 -283 468 -231 139 40 231
114 632 509 356 352 516 545 626 756 199 382 193 745 -17 1055 -55 80 -197
227 -274 281 -75 54 -206 116 -293 139 -36 9 -117 19 -180 21 -98 5 -120 3
-150 -13z"/>
<path d="M5955 6639 c-32 -18 -45 -40 -45 -73 1 -63 40 -86 147 -86 124 -1
181 -35 198 -120 12 -61 30 -80 76 -80 58 0 89 34 89 97 -1 98 -65 183 -179
237 -58 27 -79 31 -166 34 -63 1 -107 -2 -120 -9z"/>
</g>
</svg>
